<svg width="200" height="200" fill="#000000" xmlns="http://www.w3.org/2000/svg" xmlns:xlink="http://www.w3.org/1999/xlink" version="1.1" x="0px" y="0px" viewBox="0 0 100 100" enable-background="new 0 0 100 100" xml:space="preserve"><path fill="#000000" d="M70.533,40H43V26.435C43,22.474,46.271,19,50,19s7,3.474,7,7.435V30c0,1.104,0.896,2,2,2h9  c1.104,0,2-0.896,2-2v-3c0-11.972-8.585-21-19.97-21c-11.403,0-20.019,8.914-20.042,20.916C29.975,33.79,29.993,38,30.008,40H29.92  C22.654,40,17,46.186,17,53.452v27.871C17,88.588,22.654,95,29.92,95h40.612C77.799,95,84,88.588,84,81.322V53.452  C84,46.186,77.799,40,70.533,40z M33.988,26.923c0.019-9.886,6.766-16.992,16.042-16.992C59.284,9.931,66,17.149,66,27v1h-5v-1.565  C61,20.237,55.962,15,50,15s-11,5.237-11,11.435V40h-4.992C33.994,38,33.976,33.822,33.988,26.923z M80,80.822  C80,85.891,75.891,90,70.822,90H30.178C25.109,90,21,85.891,21,80.822V53.178C21,48.109,25.109,44,30.178,44h40.645  C75.891,44,80,48.109,80,53.178V80.822z"/><path fill="#000000" d="M48.942,54.475c-3.687,0.462-6.619,3.486-6.972,7.19c-0.236,2.48,0.687,4.882,2.458,6.562L42.48,75.45  c-0.317,1.176-0.074,2.234,0.667,3.2C43.887,79.616,45.01,80,46.228,80h7.492c1.218,0,2.341-0.384,3.082-1.351  c0.74-0.966,0.983-2.11,0.666-3.285l-1.948-7.178c1.583-1.499,2.494-3.55,2.494-5.757C58.014,57.657,53.838,53.855,48.942,54.475z   M52.161,65.802l-1.225,0.621L53.565,76h-7.183l2.63-9.576l-1.225-0.707c-1.293-0.836-1.979-2.198-1.834-3.714  c0.174-1.825,1.673-3.352,3.487-3.58c2.462-0.31,4.573,1.614,4.573,4.017C54.014,63.808,53.338,65.041,52.161,65.802z"/></svg>